<svg width="34" height="27" viewBox="0 0 34 27" fill="none" xmlns="http://www.w3.org/2000/svg">
<path d="M3.4 3.08755H8.5L11.9 0.130371H22.1L25.5 3.08755H30.6C31.5017 3.08755 32.3665 3.39911 33.0042 3.95369C33.6418 4.50827 34 5.26044 34 6.04473V23.7878C34 24.5721 33.6418 25.3243 33.0042 25.8789C32.3665 26.4334 31.5017 26.745 30.6 26.745H3.4C2.49826 26.745 1.63346 26.4334 0.995837 25.8789C0.358213 25.3243 0 24.5721 0 23.7878V6.04473C0 5.26044 0.358213 4.50827 0.995837 3.95369C1.63346 3.39911 2.49826 3.08755 3.4 3.08755ZM17 7.52332C14.7457 7.52332 12.5837 8.30222 10.9896 9.68867C9.39553 11.0751 8.5 12.9555 8.5 14.9163C8.5 16.877 9.39553 18.7574 10.9896 20.1439C12.5837 21.5303 14.7457 22.3092 17 22.3092C19.2543 22.3092 21.4163 21.5303 23.0104 20.1439C24.6045 18.7574 25.5 16.877 25.5 14.9163C25.5 12.9555 24.6045 11.0751 23.0104 9.68867C21.4163 8.30222 19.2543 7.52332 17 7.52332ZM17 10.4805C18.3526 10.4805 19.6498 10.9478 20.6062 11.7797C21.5627 12.6116 22.1 13.7398 22.1 14.9163C22.1 16.0927 21.5627 17.221 20.6062 18.0528C19.6498 18.8847 18.3526 19.3521 17 19.3521C15.6474 19.3521 14.3502 18.8847 13.3938 18.0528C12.4373 17.221 11.9 16.0927 11.9 14.9163C11.9 13.7398 12.4373 12.6116 13.3938 11.7797C14.3502 10.9478 15.6474 10.4805 17 10.4805Z" fill="#BAB9BB"/>
</svg>
