<svg width="64" height="64" viewBox="0 0 64 64" fill="none" xmlns="http://www.w3.org/2000/svg">
<path d="M21.2 23.8L16.6 25.3V26.9L21.2 25.6V23.8Z" fill="#C94747"/>
<path d="M21.2 25.6L16.6 26.9V28.7L21.2 27.4V25.6Z" fill="#3E4347"/>
<path d="M2 51.7H62V62H2V51.7Z" fill="#75D6FF"/>
<path d="M30.2 15.6H30.1C30.2 15.3 30.2 15 30.2 14.7C30.2 13 29 11.5 27.3 11.2C26.8 9.2 25 7.7 22.9 7.7C22.3 7.7 21.6 7.8 21.1 8.1C20.1 6.6 18.5 5.7 16.6 5.7H16C15 3.5 12.8 2 10.2 2C6.70002 2 3.90002 4.8 3.90002 8.4C3.90002 12 6.70002 14.8 10.3 14.8C11 14.8 11.7 14.7 12.3 14.5C13.3 15.8 14.9 16.7 16.6 16.7C17.8 16.7 18.9 16.3 19.8 15.6C20.6 16.4 21.7 16.9 22.9 16.9C23.1 16.9 23.3 16.9 23.5 16.8C24.1 17.8 25.3 18.4 26.5 18.4C27.2 18.4 27.8 18.2 28.4 17.9C28.6 18.7 29.3 19.3 30.2 19.3C31.2 19.3 32 18.5 32 17.5C32 16.4 31.2 15.6 30.2 15.6Z" fill="#DAE3EA"/>
<path d="M33.7001 18.2C32.6001 17.7 31.4001 17.5 30.2001 17.5C28.8001 17.5 26.9001 17.8 25.7001 18.4L24.8 25.6H37.5L33.7001 18.2Z" fill="#94989B"/>
<path d="M18.4 27.4L13.9 29.5V34.7H16.6V45.6H40.2V33.8L18.4 27.4Z" fill="#62727A"/>
<path d="M18.4 27.4V32.9H21.1V44.7H44.7V32.9H47.5V27.4H18.4Z" fill="#B2C1C0"/>
<path d="M21.1 47.5L10.2 49.2V40.1L21.1 34.7V47.5Z" fill="#62727A"/>
<path d="M56.3 56.9C56.3 56.9 25.5 63.4 11 58.1C9.00002 57.4 6.70002 56.1 3.90002 53.2V48.8C3.90002 48.8 14.2 47.5 26.8 40.7C42.3 32.4 55.9 32 60.3 33.9C60.2 33.8 56.3 40.1 56.3 56.9Z" fill="#F15744"/>
<path d="M56.5 51.9C56.6 48.1 57.8 46.5 59.3 44C64.8 35.2 60.2 33.9 60.2 33.9C56.7 39.7 56.5 51.9 56.5 51.9Z" fill="#D33B23"/>
<path d="M59.3 35.7C53.7 34.1 40.8 35.3 26.6 42.9C14.2 49.6 4.00002 50.1 3.90002 50.1V51C4.00002 51 14.4 50.5 27 43.8C40.8 36.4 53.6 35.2 59 36.6L59.3 35.7Z" fill="white"/>
<path d="M59.3 35.8C59.2 36.1 59.1 36.4 59 36.6C59.8 36.9 61.2 37.7 61.7 39.2C61.9 38.7 62 38.2 62 37.8C61.2 36.7 60 36.1 59.3 35.8Z" fill="#B2C1C0"/>
<path d="M21.2 25.6H44.7V27.4H21.2V25.6Z" fill="#62727A"/>
<path d="M21.2 23.8H44.7V25.6H21.2V23.8Z" fill="#FF9D27"/>
<path d="M18.4 27.4H47.5V32.8H18.4V27.4Z" fill="#C5D0D8"/>
<path d="M20.3 28.8H21.6V31.5H20.3V28.8ZM23.7001 28.8H25V31.5H23.7001V28.8ZM27.1 28.8H28.4V31.5H27.1V28.8ZM30.5 28.8H31.8V31.5H30.5V28.8ZM34 28.8H35.3V31.5H34V28.8ZM37.4001 28.8H38.7001V31.5H37.4001V28.8ZM40.8 28.8H42.1V31.5H40.8V28.8ZM44.2001 28.8H45.5V31.5H44.2001V28.8Z" fill="#94989B"/>
<path d="M22.9 33.8H26.5V35.6H22.9V33.8ZM42.9 34.3L39.3 35.3V33.8H42.9V34.3ZM33.8 33.8H37.4V35.6H33.8V33.8ZM28.4 33.8H32V35.6H28.4V33.8Z" fill="#62727A"/>
<path d="M13.5 41.4L11.2 42.5V44.7L13.5 43.8V41.4ZM20.1 38.1L17.8 39.3V42.1L20.1 41.2V38.1ZM16.8 39.8L14.5 40.9V43.4L16.8 42.5V39.8Z" fill="white"/>
</svg>
