<svg width="16" height="16" viewBox="0 0 16 16" fill="none" xmlns="http://www.w3.org/2000/svg">
<path d="M15.3105 16L9.1949 9.88514C8.70659 10.3011 8.14503 10.623 7.51022 10.8509C6.87542 11.0788 6.23736 11.1927 5.59605 11.1927C4.03215 11.1927 2.7085 10.6514 1.6251 9.56875C0.5417 8.48549 0 7.16232 0 5.59927C0 4.03621 0.541048 2.7124 1.62315 1.62783C2.70589 0.54261 4.02889 0 5.59214 0C7.15604 0 8.48034 0.541634 9.56504 1.6249C10.6497 2.70817 11.1921 4.03198 11.1921 5.59634C11.1921 6.27468 11.072 6.93122 10.8317 7.56595C10.5908 8.20067 10.275 8.74361 9.88439 9.19475L16 15.3086L15.3105 16ZM5.59605 10.2152C6.8917 10.2152 7.98584 9.76926 8.87847 8.87739C9.77045 7.98552 10.2164 6.89151 10.2164 5.59536C10.2164 4.29987 9.77045 3.20618 8.87847 2.31431C7.98649 1.42244 6.89267 0.976503 5.59702 0.976503C4.30137 0.976503 3.20723 1.42244 2.31459 2.31431C1.42261 3.20618 0.976622 4.29987 0.976622 5.59536C0.976622 6.89086 1.42261 7.98454 2.31459 8.87641C3.20658 9.76828 4.30039 10.2152 5.59605 10.2152Z" fill="#FF0606"/>
</svg>
