<svg width="36" height="36" viewBox="0 0 36 36" fill="none" xmlns="http://www.w3.org/2000/svg">
<g clip-path="url(#clip0_108_143)">
<path d="M34.0001 16.78C34.3717 16.5031 34.6474 16.1169 34.7885 15.6754C34.9296 15.2339 34.9289 14.7594 34.7867 14.3183C34.6444 13.8772 34.3677 13.4917 33.9953 13.2158C33.6229 12.94 33.1735 12.7876 32.7101 12.78L23.7101 12.44C23.6658 12.4369 23.6234 12.4212 23.5879 12.3945C23.5524 12.3679 23.5254 12.3316 23.5101 12.29L20.4001 3.88999C20.2438 3.46263 19.96 3.09361 19.5871 2.83289C19.2142 2.57217 18.7701 2.43234 18.3151 2.43234C17.8601 2.43234 17.416 2.57217 17.0431 2.83289C16.6701 3.09361 16.3863 3.46263 16.2301 3.88999L13.1301 12.32C13.1148 12.3616 13.0877 12.3979 13.0522 12.4245C13.0168 12.4512 12.9743 12.4669 12.9301 12.47L3.93009 12.81C3.46669 12.8176 3.01728 12.97 2.64488 13.2458C2.27247 13.5217 1.99575 13.9072 1.85349 14.3483C1.71124 14.7894 1.71061 15.2639 1.85167 15.7054C1.99273 16.1469 2.26842 16.5331 2.64009 16.81L9.70009 22.36C9.73542 22.3878 9.76183 22.4254 9.77605 22.468C9.79026 22.5107 9.79167 22.5565 9.78008 22.6L7.35009 31.21C7.22416 31.6484 7.23636 32.115 7.38502 32.5463C7.53368 32.9776 7.81159 33.3526 8.18093 33.6203C8.55028 33.888 8.99313 34.0354 9.44924 34.0425C9.90535 34.0497 10.3526 33.9161 10.7301 33.66L18.1901 28.66C18.2268 28.6346 18.2704 28.621 18.3151 28.621C18.3597 28.621 18.4033 28.6346 18.4401 28.66L25.9001 33.66C26.2725 33.9248 26.7181 34.0671 27.1751 34.0671C27.6321 34.0671 28.0777 33.9248 28.4501 33.66C28.8195 33.3948 29.0977 33.0216 29.2463 32.5918C29.395 32.1621 29.4068 31.6968 29.2801 31.26L26.8301 22.62C26.8171 22.5766 26.8178 22.5303 26.8321 22.4873C26.8465 22.4444 26.8737 22.4069 26.9101 22.38L34.0001 16.78Z" fill="#FF9D27"/>
</g>
<defs>
<clipPath id="clip0_108_143">
<rect width="36" height="36" fill="white"/>
</clipPath>
</defs>
</svg>
